<svg xmlns="http://www.w3.org/2000/svg" width="15" height="13" viewBox="0 0 15 13">
  <g id="Message" transform="translate(0.473 -0.266)">
    <path id="Message-2" data-name="Message" d="M11.2,13H3.795A3.727,3.727,0,0,1,0,9.353V3.647A3.727,3.727,0,0,1,3.795,0H11.2A3.894,3.894,0,0,1,13.89,1.07,3.553,3.553,0,0,1,15,3.647V9.353A3.728,3.728,0,0,1,11.2,13ZM3.026,3.788a.56.56,0,0,0-.4.162.537.537,0,0,0-.053.722l.1.094L6.082,7.331a2.4,2.4,0,0,0,1.463.491,2.444,2.444,0,0,0,1.469-.491L12.4,4.724l.06-.058a.543.543,0,0,0-.009-.722.633.633,0,0,0-.4-.188h-.032a.582.582,0,0,0-.39.145L8.25,6.5a1.2,1.2,0,0,1-.747.26A1.223,1.223,0,0,1,6.75,6.5L3.375,3.9A.6.6,0,0,0,3.026,3.788Z" transform="translate(-0.473 0.266)" fill="#4c8613"/>
  </g>
</svg>
