<svg xmlns="http://www.w3.org/2000/svg" xmlns:xlink="http://www.w3.org/1999/xlink" width="81.609" height="101.555" viewBox="0 0 81.609 101.555">
  <defs>
    <linearGradient id="linear-gradient" x1="0.5" y1="1" x2="0.5" gradientUnits="objectBoundingBox">
      <stop offset="0" stop-color="#fd5900"/>
      <stop offset="1" stop-color="#ffde00"/>
    </linearGradient>
    <linearGradient id="linear-gradient-2" x1="0.5" y1="1" x2="0.5" gradientUnits="objectBoundingBox">
      <stop offset="0" stop-color="#ffe59a"/>
      <stop offset="1" stop-color="#ffffd5"/>
    </linearGradient>
  </defs>
  <g id="best-seller" transform="translate(0)">
    <path id="Path_21629" data-name="Path 21629" d="M129.666,42.766a2.415,2.415,0,0,1,0-2.261l1.25-2.361a8.419,8.419,0,0,0-2.431-10.651l-2.151-1.585a2.413,2.413,0,0,1-.981-2.036l.1-2.67a8.419,8.419,0,0,0-6.811-8.541l-2.626-.5a2.413,2.413,0,0,1-1.767-1.409l-1.067-2.45a8.419,8.419,0,0,0-9.843-4.74l-2.58.693a2.414,2.414,0,0,1-2.2-.5L96.534,2.013a8.42,8.42,0,0,0-10.925,0L83.585,3.757a2.414,2.414,0,0,1-2.2.5L78.8,3.567a8.419,8.419,0,0,0-9.843,4.74l-1.067,2.45a2.413,2.413,0,0,1-1.767,1.409l-2.626.5A8.419,8.419,0,0,0,56.688,21.2l.1,2.67a2.413,2.413,0,0,1-.981,2.036l-2.151,1.585a8.42,8.42,0,0,0-2.431,10.651l1.25,2.361a2.414,2.414,0,0,1,0,2.26l-1.25,2.361a8.42,8.42,0,0,0,2.431,10.651l2.151,1.585a2.413,2.413,0,0,1,.981,2.037l-.1,2.67A8.419,8.419,0,0,0,63.5,70.611l1.377.26.2,6.36,14.682,7.46,6.368-3.021a8.43,8.43,0,0,0,9.815.05l5.245,3.566,14.682-7.49,1.308-6.909,1.463-.276a8.419,8.419,0,0,0,6.811-8.541l-.1-2.67a2.414,2.414,0,0,1,.981-2.036l2.151-1.585a8.419,8.419,0,0,0,2.431-10.651Z" transform="translate(-50.267 0)" fill="url(#linear-gradient)"/>
    <g id="Group_17603" data-name="Group 17603" transform="translate(4.751 14.85)">
      <g id="Group_17602" data-name="Group 17602" transform="translate(0)">
        <path id="Path_21630" data-name="Path 21630" d="M137.049,101.629a26.786,26.786,0,1,0-26.786,26.786,26.816,26.816,0,0,0,26.786-26.786Zm-13.386-1.548-4.541,4.426,1.072,6.25a2.976,2.976,0,0,1-4.318,3.137l-5.612-2.951-5.612,2.951a2.976,2.976,0,0,1-4.318-3.137l1.072-6.25-4.541-4.426A2.976,2.976,0,0,1,98.514,95l6.275-.912,2.806-5.686a2.976,2.976,0,0,1,5.338,0l2.806,5.686,6.275.912a2.976,2.976,0,0,1,1.65,5.077Zm-20.886,39.426a2.414,2.414,0,0,0-2.2-.5l-2.58.693a8.419,8.419,0,0,1-9.843-4.74l-1.067-2.449a2.414,2.414,0,0,0-1.767-1.41l-1.248-.235L74.583,148a2.976,2.976,0,0,0,2.8,4.411l8.711-.562,3.883,8.016a2.977,2.977,0,0,0,2.6,1.678h.076A2.976,2.976,0,0,0,95.261,160l10.062-18.341c-.178-.13-.352-.266-.521-.412ZM145.85,148l-9.477-17.125-1.162.219a2.413,2.413,0,0,0-1.767,1.409l-1.067,2.45a8.433,8.433,0,0,1-7.7,5.022,8.239,8.239,0,0,1-2.139-.282l-2.58-.693a2.414,2.414,0,0,0-2.2.5l-2.024,1.744q-.285.246-.588.462L125.173,160a2.976,2.976,0,0,0,2.609,1.545h.076a2.976,2.976,0,0,0,2.6-1.678l3.884-8.016,8.711.562a2.976,2.976,0,0,0,2.8-4.411Z" transform="translate(-74.211 -74.843)" fill="url(#linear-gradient-2)"/>
      </g>
    </g>
  </g>
</svg>
