<svg xmlns="http://www.w3.org/2000/svg" width="21.519" height="21.5" viewBox="0 0 21.519 21.5">
  <g id="COCO_Line_Setting" data-name="COCO/Line/Setting" transform="translate(-2.231 -2.25)">
    <path id="Vector" d="M15.413,15.867A2.667,2.667,0,1,1,12.747,13.2,2.667,2.667,0,0,1,15.413,15.867Z" transform="translate(4.12 4.467)" fill="none" stroke="#fff" stroke-linecap="round" stroke-width="1.5"/>
    <path id="Vector-2" data-name="Vector" d="M7.013,9.267A2.667,2.667,0,1,1,4.347,6.6,2.667,2.667,0,0,1,7.013,9.267Z" transform="translate(3.187 3.733)" fill="none" stroke="#fff" stroke-linecap="round" stroke-width="1.5"/>
    <path id="Vector-3" data-name="Vector" d="M15.413,2.667A2.667,2.667,0,1,1,12.747,0,2.667,2.667,0,0,1,15.413,2.667Z" transform="translate(4.12 3)" fill="none" stroke="#fff" stroke-linecap="round" stroke-width="1.5"/>
    <path id="Vector-4" data-name="Vector" d="M17.2,16.98H20M1.867,9.717,0,9.765m7.966,0H20M10.89,2.551H0m20,0H17.2M0,16.98H10.89" transform="translate(3 3.283)" fill="none" stroke="#fff" stroke-linecap="round" stroke-width="1.5"/>
  </g>
</svg>
