<svg xmlns="http://www.w3.org/2000/svg" width="15" height="15" viewBox="0 0 15 15">
  <g id="Calling" transform="translate(0.474 0.377)">
    <path id="Calling-2" data-name="Calling" d="M9.84,14.585C6.622,13.242,1.706,8.423.407,5.231A2.794,2.794,0,0,1,.4,2.325C.611,1.979,1.825.535,2.911.58a1.4,1.4,0,0,1,.846.443A9.909,9.909,0,0,1,5.443,3.364a1.675,1.675,0,0,1-.317,1.215c-.2.351-.736,1.015-.6,1.4a8.618,8.618,0,0,0,4.57,4.44c.379.138,1.044-.4,1.393-.6A1.658,1.658,0,0,1,11.7,9.5a10.066,10.066,0,0,1,2.334,1.72,1.392,1.392,0,0,1,.439.841c.04,1.112-1.47,2.381-1.745,2.539a2.116,2.116,0,0,1-1.268.4A3.893,3.893,0,0,1,9.84,14.585Zm1.286-8.637h0A2.6,2.6,0,0,0,9.069,3.885a.645.645,0,0,1,.245-1.267A3.881,3.881,0,0,1,12.389,5.7a.649.649,0,0,1-.508.758.709.709,0,0,1-.124.011A.645.645,0,0,1,11.126,5.948Zm2.592-.056a5.184,5.184,0,0,0-4.595-4.6A.647.647,0,0,1,8.8.138.613.613,0,0,1,9.267.006,6.463,6.463,0,0,1,15,5.748a.643.643,0,0,1-.567.713.529.529,0,0,1-.073,0A.642.642,0,0,1,13.718,5.892Z" transform="translate(-0.474 -0.377)" fill="#4c8613"/>
  </g>
</svg>
