<svg xmlns="http://www.w3.org/2000/svg" width="12" height="15" viewBox="0 0 12 15">
  <g id="Location" transform="translate(-0.375 0.43)">
    <path id="Location-2" data-name="Location" d="M6,15a.921.921,0,0,1-.518-.186,15.59,15.59,0,0,1-3.911-3.856A8.1,8.1,0,0,1,0,6.238,6.318,6.318,0,0,1,1.767,1.825,5.842,5.842,0,0,1,6,0a6.132,6.132,0,0,1,6,6.238,8.1,8.1,0,0,1-1.574,4.72,15.885,15.885,0,0,1-3.911,3.856A.9.9,0,0,1,6,15ZM6,4.333a2.043,2.043,0,0,0-1.976,2.1A2.1,2.1,0,0,0,4.6,7.9,1.924,1.924,0,0,0,6,8.5,2.029,2.029,0,0,0,7.981,6.433,2.146,2.146,0,0,0,7.4,4.953,1.917,1.917,0,0,0,6,4.333Z" transform="translate(0.375 -0.43)" fill="#4c8613"/>
  </g>
</svg>
